<svg width="184" height="50" viewBox="0 0 184 50" fill="none" xmlns="http://www.w3.org/2000/svg">
<path d="M14 18.9878L6.78516 24.9995L14 31.0112C14.2393 31.2073 14.4374 31.4489 14.5828 31.7219C14.7283 31.9949 14.8183 32.294 14.8476 32.602C14.8769 32.91 14.845 33.2207 14.7536 33.5163C14.6622 33.8118 14.5132 34.0864 14.3152 34.3241C14.1172 34.5618 13.8741 34.7579 13.6 34.9012C13.3258 35.0445 13.026 35.1321 12.7178 35.1589C12.4096 35.1858 12.0991 35.1513 11.8043 35.0576C11.5095 34.9639 11.2361 34.8127 11 34.6128L1.62501 26.8003C1.36096 26.5804 1.14852 26.305 1.00273 25.9938C0.856944 25.6826 0.781372 25.3432 0.781372 24.9995C0.781372 24.6559 0.856944 24.3164 1.00273 24.0052C1.14852 23.694 1.36096 23.4187 1.62501 23.1987L11 15.3862C11.4783 14.9943 12.0921 14.8072 12.7076 14.8658C13.3232 14.9244 13.8907 15.2239 14.2864 15.699C14.6822 16.1741 14.8742 16.7864 14.8205 17.4024C14.7669 18.0184 14.4719 18.5883 14 18.9878ZM48.375 23.1987L39 15.3862C38.7639 15.1864 38.4905 15.0352 38.1957 14.9415C37.9009 14.8477 37.5904 14.8133 37.2822 14.8401C36.9741 14.867 36.6742 14.9546 36.4 15.0978C36.1259 15.2411 35.8828 15.4373 35.6848 15.675C35.4868 15.9127 35.3378 16.1872 35.2464 16.4828C35.1551 16.7784 35.1231 17.0891 35.1524 17.3971C35.1817 17.705 35.2717 18.0042 35.4172 18.2772C35.5626 18.5502 35.7607 18.7917 36 18.9878L43.2148 24.9995L36 31.0112C35.7607 31.2073 35.5626 31.4489 35.4172 31.7219C35.2717 31.9949 35.1817 32.294 35.1524 32.602C35.1231 32.91 35.1551 33.2207 35.2464 33.5163C35.3378 33.8118 35.4868 34.0864 35.6848 34.3241C35.8828 34.5618 36.1259 34.7579 36.4 34.9012C36.6742 35.0445 36.9741 35.1321 37.2822 35.1589C37.5904 35.1858 37.9009 35.1513 38.1957 35.0576C38.4905 34.9639 38.7639 34.8127 39 34.6128L48.375 26.8003C48.639 26.5804 48.8515 26.305 48.9973 25.9938C49.1431 25.6826 49.2186 25.3432 49.2186 24.9995C49.2186 24.6559 49.1431 24.3164 48.9973 24.0052C48.8515 23.694 48.639 23.4187 48.375 23.1987ZM32.0508 5.6089C31.7615 5.50369 31.4543 5.4565 31.1467 5.47004C30.8392 5.48358 30.5373 5.55757 30.2583 5.6878C29.9794 5.81802 29.7288 6.00193 29.521 6.22901C29.3131 6.45609 29.152 6.7219 29.0469 7.01125L16.5469 41.3862C16.335 41.9703 16.3637 42.6146 16.6266 43.1775C16.8896 43.7404 17.3653 44.1759 17.9492 44.3882C18.2056 44.4829 18.4767 44.5311 18.75 44.5308C19.2312 44.5309 19.7008 44.3828 20.0949 44.1068C20.4891 43.8307 20.7887 43.4401 20.9531 42.9878L33.4531 8.61281C33.5583 8.3235 33.6055 8.01629 33.592 7.70873C33.5785 7.40118 33.5045 7.0993 33.3742 6.82035C33.244 6.5414 33.0601 6.29084 32.833 6.08297C32.6059 5.87511 32.3401 5.71402 32.0508 5.6089Z" fill="#00A3E9"/>
<path d="M78.6882 22.9922H75.8885C75.8374 22.63 75.733 22.3082 75.5753 22.027C75.4176 21.7415 75.2152 21.4986 74.968 21.2983C74.7209 21.098 74.4354 20.9446 74.1115 20.8381C73.7919 20.7315 73.4446 20.6783 73.0696 20.6783C72.392 20.6783 71.8018 20.8466 71.299 21.1832C70.7962 21.5156 70.4063 22.0014 70.1293 22.6406C69.8523 23.2756 69.7138 24.0469 69.7138 24.9545C69.7138 25.8878 69.8523 26.6719 70.1293 27.3068C70.4105 27.9418 70.8026 28.4212 71.3054 28.745C71.8082 29.0689 72.3899 29.2308 73.0504 29.2308C73.4212 29.2308 73.7642 29.1818 74.0795 29.0838C74.3991 28.9858 74.6825 28.843 74.9297 28.6555C75.1768 28.4638 75.3814 28.2315 75.5433 27.9588C75.7095 27.6861 75.8246 27.375 75.8885 27.0256L78.6882 27.0384C78.6158 27.6392 78.4347 28.2188 78.1449 28.777C77.8594 29.331 77.4737 29.8274 76.9879 30.2663C76.5064 30.701 75.9311 31.0462 75.2621 31.3018C74.5973 31.5533 73.8452 31.679 73.0057 31.679C71.8381 31.679 70.794 31.4148 69.8736 30.8864C68.9574 30.358 68.233 29.593 67.7003 28.5916C67.1719 27.5902 66.9077 26.3778 66.9077 24.9545C66.9077 23.527 67.1761 22.3125 67.7131 21.3111C68.25 20.3097 68.9787 19.5469 69.8991 19.0227C70.8196 18.4943 71.8551 18.2301 73.0057 18.2301C73.7642 18.2301 74.4673 18.3366 75.1151 18.5497C75.767 18.7628 76.3445 19.0739 76.8473 19.483C77.3501 19.8878 77.7592 20.3842 78.0746 20.9723C78.3942 21.5604 78.5987 22.2337 78.6882 22.9922ZM86.918 27.3196V21.6818H89.641V31.5H87.0266V29.7166H86.9244C86.7028 30.2919 86.3342 30.7543 85.8185 31.1037C85.3072 31.4531 84.6829 31.6278 83.9457 31.6278C83.2894 31.6278 82.712 31.4787 82.2134 31.1804C81.7148 30.8821 81.3249 30.4581 81.0437 29.9084C80.7667 29.3587 80.6261 28.7003 80.6218 27.9332V21.6818H83.3448V27.4474C83.3491 28.027 83.5046 28.4851 83.8114 28.8217C84.1183 29.1584 84.5295 29.3267 85.0451 29.3267C85.3732 29.3267 85.68 29.2521 85.9656 29.103C86.2511 28.9496 86.4812 28.7237 86.6559 28.4254C86.8349 28.1271 86.9222 27.7585 86.918 27.3196ZM99.9881 24.4815L97.4952 24.6349C97.4526 24.4219 97.361 24.2301 97.2203 24.0597C97.0797 23.8849 96.8944 23.7464 96.6642 23.6442C96.4384 23.5376 96.1678 23.4844 95.8525 23.4844C95.4306 23.4844 95.0748 23.5739 94.785 23.7528C94.4952 23.9276 94.3503 24.1619 94.3503 24.456C94.3503 24.6903 94.4441 24.8885 94.6316 25.0504C94.8191 25.2124 95.1408 25.3423 95.5968 25.4403L97.3738 25.7983C98.3283 25.9943 99.04 26.3097 99.5087 26.7443C99.9775 27.179 100.212 27.75 100.212 28.4574C100.212 29.1009 100.022 29.6655 99.6429 30.1513C99.2679 30.6371 98.7523 31.0163 98.0961 31.2891C97.4441 31.5575 96.6919 31.6918 95.8397 31.6918C94.54 31.6918 93.5044 31.4212 92.7331 30.88C91.9661 30.3345 91.5165 29.593 91.3844 28.6555L94.0627 28.5149C94.1436 28.9112 94.3397 29.2138 94.6507 29.4226C94.9618 29.6271 95.3603 29.7294 95.8461 29.7294C96.3233 29.7294 96.7069 29.6378 96.9966 29.4545C97.2907 29.267 97.4398 29.0263 97.4441 28.7322C97.4398 28.4851 97.3354 28.2827 97.1309 28.125C96.9263 27.9631 96.611 27.8395 96.1848 27.7543L94.4846 27.4155C93.5257 27.2237 92.812 26.8913 92.3432 26.4183C91.8787 25.9453 91.6465 25.3423 91.6465 24.6094C91.6465 23.9787 91.8169 23.4354 92.1578 22.9794C92.503 22.5234 92.9867 22.1719 93.6088 21.9247C94.2353 21.6776 94.9682 21.554 95.8077 21.554C97.0478 21.554 98.0236 21.8161 98.7353 22.3402C99.4512 22.8643 99.8688 23.5781 99.9881 24.4815ZM107.149 21.6818V23.7273H101.236V21.6818H107.149ZM102.578 19.3295H105.301V28.483C105.301 28.7344 105.34 28.9304 105.417 29.071C105.493 29.2074 105.6 29.3033 105.736 29.3587C105.877 29.4141 106.039 29.4418 106.222 29.4418C106.35 29.4418 106.478 29.4311 106.605 29.4098C106.733 29.3842 106.831 29.3651 106.9 29.3523L107.328 31.3786C107.191 31.4212 107 31.4702 106.752 31.5256C106.505 31.5852 106.205 31.6214 105.851 31.6342C105.195 31.6598 104.62 31.5724 104.125 31.3722C103.635 31.1719 103.254 30.8608 102.981 30.4389C102.708 30.017 102.574 29.4844 102.578 28.8409V19.3295ZM113.253 31.6918C112.26 31.6918 111.402 31.4808 110.677 31.0589C109.957 30.6328 109.401 30.0405 109.009 29.282C108.617 28.5192 108.421 27.6349 108.421 26.6293C108.421 25.6151 108.617 24.7287 109.009 23.9702C109.401 23.2074 109.957 22.6151 110.677 22.1932C111.402 21.767 112.26 21.554 113.253 21.554C114.246 21.554 115.103 21.767 115.823 22.1932C116.547 22.6151 117.105 23.2074 117.498 23.9702C117.89 24.7287 118.086 25.6151 118.086 26.6293C118.086 27.6349 117.89 28.5192 117.498 29.282C117.105 30.0405 116.547 30.6328 115.823 31.0589C115.103 31.4808 114.246 31.6918 113.253 31.6918ZM113.266 29.5824C113.718 29.5824 114.095 29.4545 114.397 29.1989C114.7 28.9389 114.928 28.5852 115.081 28.1378C115.239 27.6903 115.318 27.1811 115.318 26.6101C115.318 26.0391 115.239 25.5298 115.081 25.0824C114.928 24.6349 114.7 24.2812 114.397 24.0213C114.095 23.7614 113.718 23.6314 113.266 23.6314C112.81 23.6314 112.426 23.7614 112.115 24.0213C111.809 24.2812 111.576 24.6349 111.419 25.0824C111.265 25.5298 111.189 26.0391 111.189 26.6101C111.189 27.1811 111.265 27.6903 111.419 28.1378C111.576 28.5852 111.809 28.9389 112.115 29.1989C112.426 29.4545 112.81 29.5824 113.266 29.5824ZM119.856 31.5V21.6818H122.451V23.4141H122.566C122.771 22.8388 123.112 22.3849 123.589 22.0526C124.066 21.7202 124.637 21.554 125.302 21.554C125.975 21.554 126.549 21.7223 127.022 22.0589C127.495 22.3913 127.81 22.843 127.968 23.4141H128.07C128.27 22.8516 128.632 22.402 129.157 22.0653C129.685 21.7244 130.309 21.554 131.029 21.554C131.946 21.554 132.689 21.8459 133.26 22.4297C133.836 23.0092 134.123 23.8317 134.123 24.897V31.5H131.407V25.4339C131.407 24.8885 131.262 24.4794 130.972 24.2067C130.682 23.9339 130.32 23.7976 129.885 23.7976C129.391 23.7976 129.005 23.9553 128.728 24.2706C128.451 24.5817 128.313 24.9929 128.313 25.5043V31.5H125.673V25.3764C125.673 24.8949 125.534 24.5114 125.257 24.2259C124.985 23.9403 124.625 23.7976 124.177 23.7976C123.875 23.7976 123.602 23.8743 123.359 24.0277C123.12 24.1768 122.931 24.3878 122.79 24.6605C122.65 24.929 122.579 25.2443 122.579 25.6065V31.5H119.856ZM144.876 31.6918C143.871 31.6918 143.006 31.4787 142.281 31.0526C141.561 30.6222 141.007 30.0256 140.619 29.2628C140.236 28.5 140.044 27.6222 140.044 26.6293C140.044 25.6236 140.238 24.7415 140.626 23.983C141.018 23.2202 141.574 22.6257 142.294 22.1996C143.014 21.7692 143.871 21.554 144.863 21.554C145.72 21.554 146.47 21.7095 147.113 22.0206C147.757 22.3317 148.266 22.7685 148.641 23.331C149.016 23.8935 149.223 24.554 149.261 25.3125H146.692C146.619 24.8224 146.427 24.4283 146.116 24.13C145.809 23.8274 145.407 23.6761 144.908 23.6761C144.486 23.6761 144.118 23.7912 143.802 24.0213C143.491 24.2472 143.248 24.5774 143.074 25.0121C142.899 25.4467 142.812 25.973 142.812 26.5909C142.812 27.2173 142.897 27.75 143.067 28.1889C143.242 28.6278 143.487 28.9624 143.802 29.1925C144.118 29.4226 144.486 29.5376 144.908 29.5376C145.219 29.5376 145.498 29.4737 145.746 29.3459C145.997 29.218 146.204 29.0327 146.366 28.7898C146.532 28.5426 146.64 28.2464 146.692 27.9013H149.261C149.219 28.6513 149.014 29.3118 148.648 29.8828C148.285 30.4496 147.785 30.8928 147.145 31.2124C146.506 31.532 145.75 31.6918 144.876 31.6918ZM155.441 31.6918C154.448 31.6918 153.589 31.4808 152.865 31.0589C152.145 30.6328 151.588 30.0405 151.196 29.282C150.804 28.5192 150.608 27.6349 150.608 26.6293C150.608 25.6151 150.804 24.7287 151.196 23.9702C151.588 23.2074 152.145 22.6151 152.865 22.1932C153.589 21.767 154.448 21.554 155.441 21.554C156.434 21.554 157.29 21.767 158.01 22.1932C158.735 22.6151 159.293 23.2074 159.685 23.9702C160.077 24.7287 160.273 25.6151 160.273 26.6293C160.273 27.6349 160.077 28.5192 159.685 29.282C159.293 30.0405 158.735 30.6328 158.01 31.0589C157.29 31.4808 156.434 31.6918 155.441 31.6918ZM155.453 29.5824C155.905 29.5824 156.282 29.4545 156.585 29.1989C156.887 28.9389 157.115 28.5852 157.269 28.1378C157.426 27.6903 157.505 27.1811 157.505 26.6101C157.505 26.0391 157.426 25.5298 157.269 25.0824C157.115 24.6349 156.887 24.2812 156.585 24.0213C156.282 23.7614 155.905 23.6314 155.453 23.6314C154.998 23.6314 154.614 23.7614 154.303 24.0213C153.996 24.2812 153.764 24.6349 153.606 25.0824C153.453 25.5298 153.376 26.0391 153.376 26.6101C153.376 27.1811 153.453 27.6903 153.606 28.1378C153.764 28.5852 153.996 28.9389 154.303 29.1989C154.614 29.4545 154.998 29.5824 155.453 29.5824ZM165.662 31.6598C164.916 31.6598 164.24 31.468 163.635 31.0845C163.034 30.6967 162.557 30.1278 162.203 29.3778C161.854 28.6236 161.679 27.6989 161.679 26.6037C161.679 25.4787 161.86 24.5433 162.223 23.7976C162.585 23.0476 163.066 22.4872 163.667 22.1165C164.272 21.7415 164.935 21.554 165.655 21.554C166.205 21.554 166.663 21.6477 167.029 21.8352C167.4 22.0185 167.699 22.2486 167.924 22.5256C168.154 22.7983 168.329 23.0668 168.449 23.331H168.532V18.4091H171.248V31.5H168.564V29.9276H168.449C168.321 30.2003 168.14 30.4709 167.905 30.7393C167.675 31.0036 167.375 31.223 167.004 31.3977C166.637 31.5724 166.19 31.6598 165.662 31.6598ZM166.525 29.4929C166.963 29.4929 167.334 29.3736 167.637 29.1349C167.944 28.892 168.178 28.5533 168.34 28.1186C168.506 27.6839 168.589 27.1747 168.589 26.5909C168.589 26.0071 168.508 25.5 168.346 25.0696C168.184 24.6392 167.95 24.3068 167.643 24.0724C167.336 23.8381 166.963 23.7209 166.525 23.7209C166.077 23.7209 165.7 23.8423 165.393 24.0852C165.086 24.3281 164.854 24.6648 164.696 25.0952C164.539 25.5256 164.46 26.0241 164.46 26.5909C164.46 27.1619 164.539 27.6669 164.696 28.1058C164.858 28.5405 165.091 28.8814 165.393 29.1286C165.7 29.3714 166.077 29.4929 166.525 29.4929ZM177.961 31.6918C176.952 31.6918 176.082 31.4872 175.354 31.0781C174.629 30.6648 174.071 30.081 173.679 29.3267C173.287 28.5682 173.091 27.6712 173.091 26.6357C173.091 25.6257 173.287 24.7393 173.679 23.9766C174.071 23.2138 174.623 22.6193 175.334 22.1932C176.05 21.767 176.89 21.554 177.853 21.554C178.501 21.554 179.104 21.6584 179.662 21.8672C180.224 22.0717 180.714 22.3807 181.132 22.794C181.554 23.2074 181.882 23.7273 182.116 24.3537C182.351 24.9759 182.468 25.7045 182.468 26.5398V27.2876H174.177V25.6001H179.905C179.905 25.2081 179.819 24.8608 179.649 24.5582C179.479 24.2557 179.242 24.0192 178.939 23.8487C178.641 23.674 178.294 23.5866 177.898 23.5866C177.484 23.5866 177.118 23.6825 176.798 23.8743C176.483 24.0618 176.236 24.3153 176.057 24.6349C175.878 24.9503 175.786 25.3018 175.782 25.6896V27.294C175.782 27.7798 175.871 28.1996 176.05 28.5533C176.233 28.907 176.491 29.1797 176.824 29.3714C177.156 29.5632 177.55 29.6591 178.006 29.6591C178.309 29.6591 178.586 29.6165 178.837 29.5312C179.089 29.446 179.304 29.3182 179.483 29.1477C179.662 28.9773 179.798 28.7685 179.892 28.5213L182.41 28.6875C182.282 29.2926 182.02 29.821 181.624 30.2727C181.232 30.7202 180.725 31.0696 180.103 31.321C179.485 31.5682 178.771 31.6918 177.961 31.6918Z" fill="white"/>
</svg>
