<svg width="154" height="28" viewBox="0 0 154 28" fill="none" xmlns="http://www.w3.org/2000/svg">
<path fill-rule="evenodd" clip-rule="evenodd" d="M41.1465 1.21094L28.018 26.7899H15.6852L21.1793 16.1888H20.934C16.3981 22.0535 9.63641 25.9145 0 26.7899V16.3352C0 16.3352 6.16428 15.9728 9.78898 12.1758H0V1.21094H11.0024V10.2289H11.2491L15.7451 1.21094H24.0654V10.1721H24.312L28.9748 1.21094H41.1451H41.1465Z" fill="#146EF5"/>
<path d="M112.742 23.9657H116.286V3.69727H112.742V23.9657Z" fill="white"/>
<path fill-rule="evenodd" clip-rule="evenodd" d="M93.2099 23.7582C93.9799 24.0779 94.7628 24.2371 95.5584 24.2371C96.8731 24.2371 98.051 23.9188 99.089 23.2807C100.126 22.644 100.963 21.7296 101.503 20.6418C102.073 19.5121 102.359 18.2317 102.359 16.7993C102.359 15.3683 102.065 14.0879 101.477 12.9582C100.927 11.8685 100.076 10.9576 99.0249 10.3321C97.9768 9.70254 96.7862 9.39275 95.4544 9.40128C94.6074 9.40128 93.7932 9.5647 93.0146 9.89296C92.2077 10.2232 91.4979 10.7517 90.9513 11.4291V3.70996H87.395V23.9656H90.9256L90.9185 22.0742C91.5375 22.809 92.3229 23.3853 93.2099 23.7582ZM96.8432 20.4869C96.2643 20.8393 95.6027 21.017 94.8569 21.017C94.1225 21.017 93.4466 20.8351 92.8321 20.4741C92.2199 20.1051 91.7147 19.5835 91.3662 18.9607C91.0042 18.2936 90.821 17.5448 90.8344 16.7865C90.8258 15.9765 90.9983 15.2518 91.3534 14.6137C91.6948 13.9891 92.2019 13.47 92.8192 13.1131C93.4338 12.7521 94.114 12.5745 94.8583 12.583C95.6012 12.5745 96.2643 12.7479 96.8432 13.1003C97.4321 13.4456 97.8813 13.9415 98.1936 14.5881C98.513 15.2276 98.6741 15.9594 98.6741 16.7865C98.6741 17.615 98.513 18.3482 98.1936 18.9863C97.8813 19.6243 97.4321 20.1231 96.8432 20.4869Z" fill="white"/>
<path d="M46.2798 4.92676H50.3295L53.9513 18.1099L57.8056 4.92676H61.1808L65.3587 17.8455L68.838 4.92676H72.5497L67.0727 23.966H63.582L59.3328 11.3457L55.43 23.966H51.9008L46.2798 4.92676Z" fill="white"/>
<path fill-rule="evenodd" clip-rule="evenodd" d="M78.53 24.3024C77.1183 24.311 75.8478 23.9997 74.7142 23.3716C73.6016 22.7456 72.6816 21.8288 72.0535 20.72C71.4118 19.5902 71.0924 18.2999 71.0924 16.8519C71.0924 15.445 71.4203 14.1746 72.0791 13.0363C72.7115 11.9231 73.6357 11.0021 74.7527 10.3719C75.8778 9.73238 77.1326 9.41406 78.5172 9.41406C80.0743 9.41406 81.4375 9.75938 82.6053 10.4486C83.7719 11.127 84.6941 12.1549 85.2404 13.3859C85.8279 14.645 86.0404 16.0887 85.8764 17.7187H74.7584C74.7898 18.3681 74.9524 18.9579 75.2461 19.4907C75.5741 20.0762 76.0332 20.5338 76.6221 20.8621C77.211 21.1889 77.8684 21.3523 78.5942 21.3523C79.1489 21.3438 79.6636 21.25 80.1399 21.0681C80.6147 20.8791 81.0168 20.6247 81.3462 20.305C81.6842 19.9867 81.9223 19.6229 82.0592 19.2193H85.7723C85.5518 20.2019 85.0875 21.1136 84.4219 21.871C83.7226 22.6557 82.8525 23.2706 81.8781 23.6686C80.8177 24.1073 79.6779 24.3231 78.53 24.3024ZM75.2589 14.1618C75.0513 14.5231 74.9058 14.9165 74.8283 15.3256H82.1975C82.1492 14.8159 81.9822 14.3245 81.7098 13.8904C81.4046 13.387 80.964 12.9789 80.4379 12.7123C79.8772 12.4222 79.2529 12.2757 78.6213 12.286C77.936 12.2776 77.2603 12.4471 76.6606 12.7777C76.0717 13.1045 75.6054 13.5664 75.2589 14.1618Z" fill="white"/>
<path d="M104.968 9.7123C104.968 8.55556 105.232 7.52956 105.759 6.63288C106.282 5.73309 107.052 5.00165 107.98 4.52546C108.939 4.01672 110.062 3.7524 111.341 3.73535V6.88014C110.745 6.88867 110.234 7.01372 109.809 7.2553C109.392 7.49067 109.057 7.84773 108.849 8.27846C108.641 8.69056 108.53 9.16804 108.513 9.71372H111.264V12.7008H108.512V23.9669H104.968V12.6994H102.684V9.7123H104.968Z" fill="white"/>
<path fill-rule="evenodd" clip-rule="evenodd" d="M125.293 24.2769C123.849 24.2769 122.555 23.9615 121.412 23.3319C120.296 22.7114 119.372 21.7989 118.738 20.6931C118.098 19.5633 117.779 18.2829 117.779 16.8519C117.779 15.4124 118.098 14.1264 118.738 12.9966C119.364 11.8821 120.29 10.9641 121.412 10.3464C122.554 9.71684 123.849 9.40137 125.293 9.40137C126.748 9.40137 128.045 9.71684 129.186 10.3464C130.315 10.9535 131.247 11.8683 131.874 12.9838C132.514 14.1136 132.838 15.4039 132.846 16.8519C132.838 18.2829 132.514 19.5633 131.874 20.6931C131.25 21.8063 130.323 22.7211 129.2 23.3319C128.05 23.9615 126.748 24.2769 125.293 24.2769ZM125.293 21.0298C126.055 21.0298 126.729 20.8579 127.318 20.5126C127.907 20.1587 128.36 19.6671 128.681 19.0375C129.001 18.3995 129.16 17.6705 129.16 16.8519C129.16 16.0235 129.001 15.2916 128.681 14.6536C128.383 14.0387 127.908 13.5255 127.318 13.1785C126.705 12.8185 126.004 12.635 125.293 12.6485C124.54 12.6485 123.87 12.8247 123.283 13.1785C122.697 13.5284 122.228 14.0411 121.931 14.6536C121.612 15.2916 121.456 16.0235 121.465 16.8519C121.465 17.6705 121.624 18.4009 121.945 19.0375C122.273 19.6671 122.724 20.1602 123.294 20.5126C123.874 20.8579 124.54 21.0298 125.293 21.0298Z" fill="white"/>
<path d="M136.675 9.71289H132.731L137 23.9661H140.454L143.263 14.8628L146.294 23.9661H149.695L153.979 9.71289H150.41L147.98 18.5845L145.295 9.71289H141.844L139.172 18.7792L136.675 9.71289Z" fill="white"/>
</svg>
