<svg width="155" height="42" viewBox="0 0 155 42" fill="none" xmlns="http://www.w3.org/2000/svg">
<g clip-path="url(#clip0_717_2637)">
<path d="M32.1562 0H9.84375C4.4072 0 0 4.4072 0 9.84375V32.1562C0 37.5928 4.4072 42 9.84375 42H32.1562C37.5928 42 42 37.5928 42 32.1562V9.84375C42 4.4072 37.5928 0 32.1562 0Z" fill="#0073AA"/>
<path d="M6.92572 20.9991C6.92572 26.5698 10.1632 31.3841 14.8577 33.6655L8.14422 15.2715C7.33945 17.0736 6.92423 19.0254 6.92572 20.9991ZM30.5005 20.2888C30.5005 18.5496 29.8758 17.3451 29.3399 16.4074C28.6264 15.2482 27.9577 14.2664 27.9577 13.1072C27.9577 11.8134 28.939 10.6091 30.321 10.6091C30.3835 10.6091 30.4426 10.6169 30.5035 10.6203C27.9996 8.32638 24.6637 6.92578 20.9995 6.92578C16.0829 6.92578 11.757 9.44841 9.24065 13.2694C9.57074 13.2793 9.88197 13.2863 10.1463 13.2863C11.6184 13.2863 13.8971 13.1075 13.8971 13.1075C14.6557 13.0629 14.7453 14.1772 13.9873 14.2669C13.9873 14.2669 13.2249 14.3567 12.3765 14.4011L17.5015 29.6455L20.5815 20.4083L18.3888 14.4006C17.631 14.3562 16.913 14.2664 16.913 14.2664C16.1546 14.222 16.2435 13.0624 17.002 13.1072C17.002 13.1072 19.3261 13.2857 20.7089 13.2857C22.1809 13.2857 24.4597 13.1072 24.4597 13.1072C25.219 13.0624 25.3081 14.1767 24.55 14.2664C24.55 14.2664 23.7859 14.3562 22.9392 14.4006L28.0253 29.5295L29.429 24.8386C30.0375 22.8919 30.5005 21.4937 30.5005 20.2888Z" fill="white"/>
<path d="M21.2466 22.2304L17.0239 34.5006C18.3149 34.8808 19.6538 35.0739 20.9997 35.074C22.5914 35.0746 24.1717 34.8048 25.6731 34.2761C25.6341 34.2146 25.6006 34.1497 25.5731 34.0822L21.2466 22.2304ZM33.3488 14.2471C33.4128 14.7267 33.4445 15.2102 33.4436 15.6941C33.4436 17.1223 33.1769 18.7278 32.3735 20.7353L28.0745 33.1645C32.2586 30.7245 35.0729 26.1916 35.0729 20.9996C35.0731 18.5526 34.4482 16.2516 33.3488 14.2471Z" fill="white"/>
<path d="M20.9997 4.59375C11.9536 4.59375 4.59375 11.9531 4.59375 20.999C4.59375 30.0461 11.9536 37.4051 20.9997 37.4051C30.0453 37.4051 37.4062 30.0461 37.4062 20.999C37.4059 11.9531 30.0453 4.59375 20.9997 4.59375ZM20.9997 36.6532C12.3683 36.6532 5.34598 29.6307 5.34598 20.999C5.34598 12.3679 12.3682 5.34598 20.9997 5.34598C29.6305 5.34598 36.6524 12.3679 36.6524 20.999C36.6524 29.6307 29.6305 36.6532 20.9997 36.6532Z" fill="white"/>
</g>
<path d="M62.0845 27.5L58.3388 14.4091H61.3622L63.5291 23.505H63.6378L66.0284 14.4091H68.6172L71.0014 23.5241H71.1165L73.2834 14.4091H76.3068L72.5611 27.5H69.8636L67.3707 18.9411H67.2685L64.782 27.5H62.0845ZM81.1184 27.6918C80.1255 27.6918 79.2669 27.4808 78.5424 27.0589C77.8223 26.6328 77.2662 26.0405 76.8741 25.282C76.4821 24.5192 76.286 23.6349 76.286 22.6293C76.286 21.6151 76.4821 20.7287 76.8741 19.9702C77.2662 19.2074 77.8223 18.6151 78.5424 18.1932C79.2669 17.767 80.1255 17.554 81.1184 17.554C82.1113 17.554 82.9679 17.767 83.688 18.1932C84.4125 18.6151 84.9707 19.2074 85.3627 19.9702C85.7548 20.7287 85.9508 21.6151 85.9508 22.6293C85.9508 23.6349 85.7548 24.5192 85.3627 25.282C84.9707 26.0405 84.4125 26.6328 83.688 27.0589C82.9679 27.4808 82.1113 27.6918 81.1184 27.6918ZM81.1312 25.5824C81.5829 25.5824 81.96 25.4545 82.2626 25.1989C82.5652 24.9389 82.7931 24.5852 82.9466 24.1378C83.1042 23.6903 83.1831 23.1811 83.1831 22.6101C83.1831 22.0391 83.1042 21.5298 82.9466 21.0824C82.7931 20.6349 82.5652 20.2812 82.2626 20.0213C81.96 19.7614 81.5829 19.6314 81.1312 19.6314C80.6752 19.6314 80.2917 19.7614 79.9806 20.0213C79.6738 20.2812 79.4416 20.6349 79.2839 21.0824C79.1305 21.5298 79.0538 22.0391 79.0538 22.6101C79.0538 23.1811 79.1305 23.6903 79.2839 24.1378C79.4416 24.5852 79.6738 24.9389 79.9806 25.1989C80.2917 25.4545 80.6752 25.5824 81.1312 25.5824ZM87.7214 27.5V17.6818H90.3613V19.3949H90.4636C90.6426 18.7855 90.943 18.3253 91.3649 18.0142C91.7868 17.6989 92.2725 17.5412 92.8223 17.5412C92.9586 17.5412 93.1056 17.5497 93.2633 17.5668C93.421 17.5838 93.5595 17.6072 93.6788 17.6371V20.0533C93.551 20.0149 93.3741 19.9808 93.1483 19.951C92.9224 19.9212 92.7157 19.9062 92.5282 19.9062C92.1277 19.9062 91.7697 19.9936 91.4544 20.1683C91.1433 20.3388 90.8961 20.5774 90.7129 20.8842C90.5339 21.1911 90.4444 21.5447 90.4444 21.9453V27.5H87.7214ZM98.2475 27.6598C97.5018 27.6598 96.8263 27.468 96.2212 27.0845C95.6204 26.6967 95.1431 26.1278 94.7894 25.3778C94.44 24.6236 94.2653 23.6989 94.2653 22.6037C94.2653 21.4787 94.4464 20.5433 94.8086 19.7976C95.1708 19.0476 95.6523 18.4872 96.2532 18.1165C96.8583 17.7415 97.521 17.554 98.2411 17.554C98.7908 17.554 99.2489 17.6477 99.6154 17.8352C99.9862 18.0185 100.284 18.2486 100.51 18.5256C100.74 18.7983 100.915 19.0668 101.034 19.331H101.118V14.4091H103.834V27.5H101.15V25.9276H101.034C100.907 26.2003 100.725 26.4709 100.491 26.7393C100.261 27.0036 99.9606 27.223 99.5898 27.3977C99.2234 27.5724 98.7759 27.6598 98.2475 27.6598ZM99.1104 25.4929C99.5494 25.4929 99.9201 25.3736 100.223 25.1349C100.529 24.892 100.764 24.5533 100.926 24.1186C101.092 23.6839 101.175 23.1747 101.175 22.5909C101.175 22.0071 101.094 21.5 100.932 21.0696C100.77 20.6392 100.536 20.3068 100.229 20.0724C99.9222 19.8381 99.5494 19.7209 99.1104 19.7209C98.663 19.7209 98.2859 19.8423 97.979 20.0852C97.6722 20.3281 97.44 20.6648 97.2823 21.0952C97.1246 21.5256 97.0458 22.0241 97.0458 22.5909C97.0458 23.1619 97.1246 23.6669 97.2823 24.1058C97.4442 24.5405 97.6765 24.8814 97.979 25.1286C98.2859 25.3714 98.663 25.4929 99.1104 25.4929ZM106.124 27.5V14.4091H111.289C112.282 14.4091 113.128 14.5987 113.827 14.978C114.525 15.353 115.058 15.875 115.425 16.544C115.795 17.2088 115.981 17.9759 115.981 18.8452C115.981 19.7145 115.793 20.4815 115.418 21.1463C115.043 21.8111 114.5 22.3288 113.788 22.6996C113.081 23.0703 112.224 23.2557 111.219 23.2557H107.927V21.0376H110.771C111.304 21.0376 111.743 20.946 112.088 20.7628C112.437 20.5753 112.697 20.3175 112.868 19.9893C113.042 19.657 113.13 19.2756 113.13 18.8452C113.13 18.4105 113.042 18.0312 112.868 17.7074C112.697 17.3793 112.437 17.1257 112.088 16.9467C111.738 16.7635 111.295 16.6719 110.758 16.6719H108.892V27.5H106.124ZM117.727 27.5V17.6818H120.367V19.3949H120.469C120.648 18.7855 120.949 18.3253 121.371 18.0142C121.793 17.6989 122.278 17.5412 122.828 17.5412C122.964 17.5412 123.112 17.5497 123.269 17.5668C123.427 17.5838 123.565 17.6072 123.685 17.6371V20.0533C123.557 20.0149 123.38 19.9808 123.154 19.951C122.928 19.9212 122.722 19.9062 122.534 19.9062C122.134 19.9062 121.776 19.9936 121.46 20.1683C121.149 20.3388 120.902 20.5774 120.719 20.8842C120.54 21.1911 120.45 21.5447 120.45 21.9453V27.5H117.727ZM129.11 27.6918C128.1 27.6918 127.231 27.4872 126.502 27.0781C125.778 26.6648 125.219 26.081 124.827 25.3267C124.435 24.5682 124.239 23.6712 124.239 22.6357C124.239 21.6257 124.435 20.7393 124.827 19.9766C125.219 19.2138 125.771 18.6193 126.483 18.1932C127.199 17.767 128.038 17.554 129.001 17.554C129.649 17.554 130.252 17.6584 130.81 17.8672C131.373 18.0717 131.863 18.3807 132.28 18.794C132.702 19.2074 133.03 19.7273 133.265 20.3537C133.499 20.9759 133.616 21.7045 133.616 22.5398V23.2876H125.326V21.6001H131.053C131.053 21.2081 130.968 20.8608 130.797 20.5582C130.627 20.2557 130.39 20.0192 130.088 19.8487C129.79 19.674 129.442 19.5866 129.046 19.5866C128.633 19.5866 128.266 19.6825 127.947 19.8743C127.631 20.0618 127.384 20.3153 127.205 20.6349C127.026 20.9503 126.934 21.3018 126.93 21.6896V23.294C126.93 23.7798 127.02 24.1996 127.199 24.5533C127.382 24.907 127.64 25.1797 127.972 25.3714C128.305 25.5632 128.699 25.6591 129.155 25.6591C129.457 25.6591 129.734 25.6165 129.986 25.5312C130.237 25.446 130.452 25.3182 130.631 25.1477C130.81 24.9773 130.947 24.7685 131.04 24.5213L133.559 24.6875C133.431 25.2926 133.169 25.821 132.773 26.2727C132.381 26.7202 131.873 27.0696 131.251 27.321C130.633 27.5682 129.92 27.6918 129.11 27.6918ZM143.562 20.4815L141.069 20.6349C141.027 20.4219 140.935 20.2301 140.795 20.0597C140.654 19.8849 140.469 19.7464 140.238 19.6442C140.013 19.5376 139.742 19.4844 139.427 19.4844C139.005 19.4844 138.649 19.5739 138.359 19.7528C138.069 19.9276 137.925 20.1619 137.925 20.456C137.925 20.6903 138.018 20.8885 138.206 21.0504C138.393 21.2124 138.715 21.3423 139.171 21.4403L140.948 21.7983C141.903 21.9943 142.614 22.3097 143.083 22.7443C143.552 23.179 143.786 23.75 143.786 24.4574C143.786 25.1009 143.596 25.6655 143.217 26.1513C142.842 26.6371 142.327 27.0163 141.67 27.2891C141.018 27.5575 140.266 27.6918 139.414 27.6918C138.114 27.6918 137.079 27.4212 136.307 26.88C135.54 26.3345 135.091 25.593 134.959 24.6555L137.637 24.5149C137.718 24.9112 137.914 25.2138 138.225 25.4226C138.536 25.6271 138.934 25.7294 139.42 25.7294C139.898 25.7294 140.281 25.6378 140.571 25.4545C140.865 25.267 141.014 25.0263 141.018 24.7322C141.014 24.4851 140.91 24.2827 140.705 24.125C140.501 23.9631 140.185 23.8395 139.759 23.7543L138.059 23.4155C137.1 23.2237 136.386 22.8913 135.917 22.4183C135.453 21.9453 135.221 21.3423 135.221 20.6094C135.221 19.9787 135.391 19.4354 135.732 18.9794C136.077 18.5234 136.561 18.1719 137.183 17.9247C137.809 17.6776 138.542 17.554 139.382 17.554C140.622 17.554 141.598 17.8161 142.309 18.3402C143.025 18.8643 143.443 19.5781 143.562 20.4815ZM153.67 20.4815L151.177 20.6349C151.134 20.4219 151.043 20.2301 150.902 20.0597C150.761 19.8849 150.576 19.7464 150.346 19.6442C150.12 19.5376 149.849 19.4844 149.534 19.4844C149.112 19.4844 148.756 19.5739 148.467 19.7528C148.177 19.9276 148.032 20.1619 148.032 20.456C148.032 20.6903 148.126 20.8885 148.313 21.0504C148.501 21.2124 148.822 21.3423 149.278 21.4403L151.055 21.7983C152.01 21.9943 152.722 22.3097 153.19 22.7443C153.659 23.179 153.893 23.75 153.893 24.4574C153.893 25.1009 153.704 25.6655 153.325 26.1513C152.95 26.6371 152.434 27.0163 151.778 27.2891C151.126 27.5575 150.374 27.6918 149.521 27.6918C148.222 27.6918 147.186 27.4212 146.415 26.88C145.648 26.3345 145.198 25.593 145.066 24.6555L147.744 24.5149C147.825 24.9112 148.021 25.2138 148.332 25.4226C148.643 25.6271 149.042 25.7294 149.528 25.7294C150.005 25.7294 150.388 25.6378 150.678 25.4545C150.972 25.267 151.121 25.0263 151.126 24.7322C151.121 24.4851 151.017 24.2827 150.812 24.125C150.608 23.9631 150.293 23.8395 149.866 23.7543L148.166 23.4155C147.207 23.2237 146.494 22.8913 146.025 22.4183C145.56 21.9453 145.328 21.3423 145.328 20.6094C145.328 19.9787 145.499 19.4354 145.839 18.9794C146.185 18.5234 146.668 18.1719 147.29 17.9247C147.917 17.6776 148.65 17.554 149.489 17.554C150.729 17.554 151.705 17.8161 152.417 18.3402C153.133 18.8643 153.55 19.5781 153.67 20.4815Z" fill="white"/>
<defs>
<clipPath id="clip0_717_2637">
<rect width="42" height="42" fill="white"/>
</clipPath>
</defs>
</svg>
