<svg width="21" height="20" viewBox="0 0 21 20" fill="none" xmlns="http://www.w3.org/2000/svg">
<path d="M15.1939 12.5H13.5272V14.1667H15.1939M15.1939 9.16667H13.5272V10.8333H15.1939M16.8605 15.8333H10.1939V14.1667H11.8605V12.5H10.1939V10.8333H11.8605V9.16667H10.1939V7.5H16.8605M8.5272 5.83333H6.86053V4.16667H8.5272M8.5272 9.16667H6.86053V7.5H8.5272M8.5272 12.5H6.86053V10.8333H8.5272M8.5272 15.8333H6.86053V14.1667H8.5272M5.19387 5.83333H3.5272V4.16667H5.19387M5.19387 9.16667H3.5272V7.5H5.19387M5.19387 12.5H3.5272V10.8333H5.19387M5.19387 15.8333H3.5272V14.1667H5.19387M10.1939 5.83333V2.5H1.86053V17.5H18.5272V5.83333H10.1939Z" fill="white"/>
</svg>
