<svg width="22" height="21" viewBox="0 0 22 21" fill="none" xmlns="http://www.w3.org/2000/svg">
<path d="M14.2232 14.6608L16.0008 12.9808C16.2402 12.7573 16.5431 12.6044 16.8727 12.5405C17.2023 12.4766 17.5445 12.5045 17.8577 12.6208L20.024 13.4383C20.3405 13.5597 20.6119 13.767 20.8039 14.0339C20.996 14.3008 21.1002 14.6155 21.1033 14.9383V18.6883C21.1014 18.9079 21.0526 19.1249 20.9597 19.3261C20.8668 19.5274 20.7318 19.7088 20.5627 19.8595C20.3937 20.0101 20.1941 20.1269 19.9761 20.2027C19.7581 20.2786 19.526 20.3119 19.294 20.3008C4.1134 19.4083 1.05031 7.25831 0.471017 2.60831C0.444126 2.37996 0.468696 2.14882 0.54311 1.93009C0.617524 1.71137 0.740095 1.51001 0.902761 1.33926C1.06543 1.16852 1.2645 1.03227 1.48688 0.93946C1.70927 0.846654 1.94992 0.799402 2.19302 0.800812H6.02586C6.36788 0.801769 6.70179 0.899412 6.98462 1.08118C7.26745 1.26296 7.48628 1.52054 7.61295 1.82081L8.47792 3.86831C8.60509 4.16311 8.63753 4.48679 8.5712 4.79892C8.50487 5.11105 8.3427 5.39778 8.10495 5.62331L6.3274 7.30331C6.3274 7.30331 7.35108 13.8508 14.2232 14.6608Z" fill="white"/>
</svg>
