<svg width="25" height="24" viewBox="0 0 25 24" fill="none" xmlns="http://www.w3.org/2000/svg">
<g clip-path="url(#clip0_890_56)">
<path d="M15.5 1.5H24.5V24H0.5V0.433594L15.5 15.4336V1.5ZM2 22.5H20.4336L2 4.06641V22.5ZM21.0664 21L22.5664 22.5H23V3H17V4.5H20V6H17V7.5H20V9H17V10.5H21.5V12H17V13.5H20V15H17V16.5H20V18H18.0664L19.5664 19.5H21.5V21H21.0664ZM5 12.4336L12.0664 19.5H5V12.4336ZM6.5 16.0664V18H8.43359L6.5 16.0664Z" fill="white"/>
</g>
<defs>
<clipPath id="clip0_890_56">
<rect width="24" height="24" fill="white" transform="translate(0.5)"/>
</clipPath>
</defs>
</svg>
