<svg width="26" height="27" viewBox="0 0 26 27" fill="none" xmlns="http://www.w3.org/2000/svg">
<path d="M19.5006 16.846H6.50057L2.16724 21.1794V3.84603C2.16724 3.55871 2.28137 3.28316 2.48454 3.08C2.6877 2.87683 2.96325 2.7627 3.25057 2.7627H19.5006C19.7879 2.7627 20.0634 2.87683 20.2666 3.08C20.4698 3.28316 20.5839 3.55871 20.5839 3.84603V15.7627C20.5839 16.05 20.4698 16.3256 20.2666 16.5287C20.0634 16.7319 19.7879 16.846 19.5006 16.846ZM24.9172 10.346V25.5127L20.5839 21.1794H8.66724C8.37992 21.1794 8.10437 21.0652 7.9012 20.8621C7.69804 20.6589 7.5839 20.3833 7.5839 20.096V19.0127H22.7506V9.2627H23.8339C24.1212 9.2627 24.3968 9.37683 24.5999 9.58C24.8031 9.78316 24.9172 10.0587 24.9172 10.346ZM8.87307 4.92936C7.93057 4.92936 7.17224 5.14603 6.58724 5.56853C6.0239 6.0127 5.74224 6.6302 5.75307 7.48603L5.7639 7.51853H7.85474C7.86557 7.19353 7.96307 6.94436 8.15807 6.77103C8.35868 6.60468 8.61252 6.51621 8.87307 6.52186C9.2089 6.52186 9.49057 6.6302 9.68557 6.8252C9.88057 7.03103 9.96724 7.3127 9.96724 7.6377C9.96724 7.98436 9.8914 8.27686 9.71807 8.52603C9.5664 8.7752 9.3389 8.99186 9.05724 9.1652C8.50474 9.53353 8.12557 9.85853 7.91974 10.151C7.70307 10.4327 7.5839 10.8877 7.5839 11.4294H9.75057C9.75057 11.0935 9.7939 10.8227 9.8914 10.6277C9.9889 10.4327 10.1731 10.2377 10.4439 10.0644C10.9314 9.80436 11.3322 9.4902 11.6464 9.05686C11.9606 8.62353 12.1231 8.17936 12.1231 7.6377C12.1231 6.81436 11.8306 6.15353 11.2456 5.66603C10.6714 5.17853 9.88057 4.92936 8.87307 4.92936ZM7.5839 12.5127V14.6794H9.75057V12.5127H7.5839ZM14.0839 14.6794H16.2506V12.5127H14.0839V14.6794ZM14.0839 4.92936V11.4294H16.2506V4.92936H14.0839Z" fill="white"/>
</svg>
