<svg width="18" height="17" viewBox="0 0 18 17" fill="none" xmlns="http://www.w3.org/2000/svg">
<path d="M3.0272 14.1673C2.63762 14.1673 2.30399 14.0285 2.02633 13.7508C1.74866 13.4732 1.61006 13.1398 1.61054 12.7507V4.25065C1.61054 3.86107 1.74937 3.52744 2.02704 3.24978C2.3047 2.97211 2.63809 2.83351 3.0272 2.83399H14.3605C14.7501 2.83399 15.0837 2.97282 15.3614 3.25049C15.6391 3.52815 15.7777 3.86154 15.7772 4.25065V12.7507C15.7772 13.1402 15.6384 13.4739 15.3607 13.7515C15.083 14.0292 14.7496 14.1678 14.3605 14.1673H3.0272ZM8.69387 9.20899L14.3605 5.66732V4.25065L8.69387 7.79232L3.0272 4.25065V5.66732L8.69387 9.20899Z" fill="white"/>
</svg>
