<svg width="25" height="25" viewBox="0 0 25 25" fill="none" xmlns="http://www.w3.org/2000/svg">
<path d="M21.1938 16.92V20.456C21.194 20.7092 21.098 20.953 20.9254 21.1382C20.7528 21.3234 20.5164 21.4363 20.2638 21.454C19.8268 21.484 19.4698 21.5 19.1938 21.5C10.3568 21.5 3.19385 14.337 3.19385 5.5C3.19385 5.224 3.20885 4.867 3.23985 4.43C3.25757 4.17744 3.37043 3.94101 3.55565 3.76841C3.74087 3.59581 3.98467 3.49989 4.23785 3.5H7.77385C7.89789 3.49987 8.01754 3.54586 8.10958 3.62902C8.20161 3.71218 8.25944 3.82658 8.27185 3.95C8.29485 4.18 8.31585 4.363 8.33585 4.502C8.53458 5.88892 8.94185 7.23783 9.54385 8.503C9.63885 8.703 9.57685 8.942 9.39685 9.07L7.23885 10.612C8.5583 13.6865 11.0084 16.1365 14.0828 17.456L15.6228 15.302C15.6858 15.214 15.7776 15.1509 15.8823 15.1237C15.9871 15.0964 16.098 15.1068 16.1958 15.153C17.4608 15.7539 18.8094 16.1602 20.1958 16.358C20.3348 16.378 20.5178 16.399 20.7458 16.422C20.8691 16.4346 20.9832 16.4926 21.0662 16.5846C21.1492 16.6766 21.194 16.7961 21.1938 16.92Z" fill="white"/>
</svg>
