<svg width="44" height="12" viewBox="0 0 44 12" fill="none" xmlns="http://www.w3.org/2000/svg">
<g clip-path="url(#clip0_708_654)">
<path d="M4.48763 1.61399C5.26277 1.60772 6.03178 1.75171 6.75214 2.03802V0.760515C5.98608 0.506865 5.18258 0.384846 4.37576 0.399638C1.46949 0.399638 0.0163574 1.64166 0.0163574 4.1257C0.0163574 6.75168 1.44483 8.06468 4.30178 8.06468C5.13702 8.08975 5.96919 7.95249 6.75214 7.66049V5.67567H5.25269V6.715C4.94964 6.79369 4.6383 6.83609 4.32524 6.8413C2.49077 6.8413 1.57354 5.9343 1.57354 4.12029C1.57354 2.44942 2.54491 1.61399 4.48763 1.61399Z" fill="white"/>
<path d="M13.8939 0.452148H12.288L8.85962 8.01073H10.4006L13.0566 1.89566L14.3305 4.73035H12.7066L12.1905 5.94651H14.8791L15.8029 8.00712H17.416L13.8939 0.452148Z" fill="white"/>
<path d="M21.2917 6.79638V0.452148H19.7922V8.01073H24.5071V6.79638H21.2917Z" fill="white"/>
<path d="M31.6543 0.452148H30.0411L26.6128 8.01073H28.1483L30.8116 1.89566L32.0855 4.73035H30.4616L29.9473 5.94651H32.6358L33.5579 8.00712H35.171L31.6543 0.452148Z" fill="white"/>
<path d="M41.7354 1.61402C42.5106 1.60774 43.2796 1.75174 43.9999 2.03805V0.760542C43.2333 0.506723 42.4292 0.384702 41.6218 0.399664C38.7167 0.399664 37.2642 1.64168 37.2642 4.12573C37.2642 6.75171 38.7167 8.0647 41.6218 8.0647C42.4299 8.07709 43.2342 7.95138 43.9999 7.693V6.42993C43.2795 6.71566 42.5105 6.85905 41.7354 6.85216C39.7915 6.85216 38.8195 5.94515 38.8195 4.13114C38.8195 2.45306 39.7915 1.61402 41.7354 1.61402Z" fill="white"/>
<path d="M0.880541 11.7564C1.58064 11.7564 1.92889 11.3955 1.92889 10.6737C1.92889 10.0314 1.58064 9.70838 0.880541 9.70838H0.180439V11.7654L0.880541 11.7564ZM0 11.9043V9.55861H0.902194C1.72499 9.55861 2.1364 9.92972 2.1364 10.6719C2.1364 11.4983 1.71898 11.9115 0.88415 11.9115L0 11.9043ZM10.525 9.55861V9.70657H9.05442V10.6449H10.4654V10.7928H9.05442V11.7636H10.5485V11.9115H8.87037V9.56583L10.525 9.55861ZM17.3311 11.8231V11.6427C17.6135 11.7322 17.9083 11.7761 18.2045 11.7726C18.7313 11.7726 18.9948 11.5861 18.9948 11.2132C18.9948 10.939 18.8234 10.8018 18.4805 10.8018H17.9627C17.4935 10.8018 17.259 10.6046 17.259 10.21C17.259 9.76131 17.603 9.53636 18.2911 9.53516C18.5671 9.53513 18.8422 9.56846 19.1103 9.6344V9.7986C18.8439 9.722 18.5682 9.68313 18.2911 9.68312C17.7263 9.68312 17.4448 9.86355 17.4448 10.21C17.4448 10.4951 17.6253 10.6376 17.9627 10.6376H18.4805C18.9479 10.6376 19.1806 10.8307 19.1806 11.2132C19.1806 11.686 18.8553 11.9224 18.2045 11.9224C17.9104 11.9247 17.6172 11.8913 17.3311 11.8231ZM26.2087 9.5514V11.8971H26.0283V9.5514H26.2087ZM35.0791 11.8123C34.8617 11.8856 34.6337 11.9228 34.4043 11.9224C33.5045 11.9224 33.054 11.5134 33.0528 10.6954C33.0528 9.9231 33.4936 9.53636 34.3754 9.53516C34.6134 9.53536 34.8503 9.56877 35.0791 9.6344V9.78236C34.8617 9.71829 34.6363 9.68489 34.4097 9.68312C33.629 9.68312 33.2386 10.0205 33.2386 10.6954C33.2386 11.4171 33.6182 11.778 34.3772 11.778C34.5521 11.7756 34.7261 11.7513 34.8951 11.7058V10.8361H35.0755L35.0791 11.8123ZM41.8979 11.9043V9.55861H42.1361L43.8196 11.6192V9.5514H43.9874V11.8971H43.8466L42.0747 9.73183V11.8971L41.8979 11.9043Z" fill="white"/>
</g>
<defs>
<clipPath id="clip0_708_654">
<rect width="44" height="11.5228" fill="white" transform="translate(0 0.400391)"/>
</clipPath>
</defs>
</svg>
