<svg width="49" height="48" viewBox="0 0 49 48" fill="none" xmlns="http://www.w3.org/2000/svg">
<path d="M6.66248 41.8096L19.6095 28.8628M35.9133 23.1056L32.0377 34.732C31.9759 34.9184 31.87 35.0871 31.729 35.2238C31.5881 35.3605 31.4162 35.4611 31.228 35.5173L7.47015 42.5786C7.25611 42.6421 7.02873 42.6458 6.81277 42.5891C6.5968 42.5324 6.40052 42.4176 6.24528 42.2571C6.09004 42.0966 5.9818 41.8966 5.93232 41.6789C5.88285 41.4612 5.89404 41.2341 5.96468 41.0223L13.6792 17.8833C13.7345 17.7172 13.8249 17.5649 13.9442 17.4368C14.0635 17.3087 14.2091 17.2077 14.3709 17.1408L25.3303 12.6286C25.5531 12.5365 25.7981 12.5126 26.0345 12.5596C26.271 12.6067 26.4882 12.7227 26.6587 12.893L35.6183 21.8565C35.7786 22.0167 35.8911 22.2185 35.9432 22.4391C35.9953 22.6597 35.9849 22.8905 35.9133 23.1056Z" stroke="white" stroke-width="3.05159" stroke-linecap="round" stroke-linejoin="round"/>
<path d="M36.1534 22.3887L41.9067 16.6335C42.6695 15.8705 43.098 14.8358 43.098 13.7569C43.098 12.678 42.6695 11.6433 41.9067 10.8803L37.5937 6.56338C37.2159 6.18539 36.7673 5.88554 36.2735 5.68097C35.7798 5.47639 35.2505 5.37109 34.7161 5.37109C34.1816 5.37109 33.6524 5.47639 33.1586 5.68097C32.6649 5.88554 32.2162 6.18539 31.8384 6.56338L26.0851 12.3186M23.9245 24.5452C23.6411 24.2619 23.3046 24.0371 22.9343 23.8839C22.564 23.7306 22.1671 23.6517 21.7663 23.6518C21.3655 23.6519 20.9687 23.731 20.5985 23.8844C20.2282 24.0379 19.8918 24.2627 19.6085 24.5462C19.3252 24.8297 19.1005 25.1661 18.9472 25.5364C18.7939 25.9067 18.7151 26.3036 18.7151 26.7044C18.7152 27.1051 18.7943 27.502 18.9477 27.8722C19.1012 28.2424 19.3261 28.5788 19.6095 28.8621C20.182 29.4343 20.9583 29.7557 21.7677 29.7555C22.5772 29.7553 23.3533 29.4336 23.9255 28.8611C24.4977 28.2886 24.8191 27.5123 24.8189 26.7029C24.8187 25.8935 24.497 25.1174 23.9245 24.5452Z" stroke="white" stroke-width="3.05159" stroke-linecap="round" stroke-linejoin="round"/>
</svg>
