<svg width="24" height="25" viewBox="0 0 24 25" fill="none" xmlns="http://www.w3.org/2000/svg">
<path d="M12 1.83398C14.785 1.83398 17.4559 2.94031 19.4251 4.90958C21.3944 6.87886 22.5007 9.54976 22.5007 12.3347C22.5007 15.1197 21.3944 17.7906 19.4251 19.7599C17.4559 21.7292 14.785 22.8355 12 22.8355C9.21502 22.8355 6.54411 21.7292 4.57484 19.7599C2.60556 17.7906 1.49924 15.1197 1.49924 12.3347C1.49924 9.54976 2.60556 6.87886 4.57484 4.90958C6.54411 2.94031 9.21502 1.83398 12 1.83398ZM13.575 8.28098C14.355 8.28098 14.988 7.73948 14.988 6.93698C14.988 6.13448 14.3535 5.59298 13.575 5.59298C12.795 5.59298 12.165 6.13448 12.165 6.93698C12.165 7.73948 12.795 8.28098 13.575 8.28098ZM13.8495 16.7215C13.8495 16.561 13.905 16.144 13.8735 15.907L12.6405 17.326C12.3855 17.5945 12.066 17.7805 11.916 17.731C11.8479 17.7059 11.7911 17.6574 11.7556 17.5942C11.7201 17.5309 11.7084 17.4571 11.7225 17.386L13.7775 10.894C13.9455 10.0705 13.4835 9.31898 12.504 9.22298C11.4705 9.22298 9.94949 10.2715 9.02399 11.602C9.02399 11.761 8.99399 12.157 9.02549 12.394L10.257 10.9735C10.512 10.708 10.809 10.5205 10.959 10.5715C11.0329 10.598 11.0934 10.6525 11.1277 10.7231C11.1619 10.7938 11.167 10.8751 11.142 10.9495L9.10499 17.41C8.86949 18.166 9.31499 18.907 10.395 19.075C11.985 19.075 12.924 18.052 13.851 16.7215H13.8495Z" fill="white"/>
</svg>
