<svg width="25" height="25" viewBox="0 0 25 25" fill="none" xmlns="http://www.w3.org/2000/svg">
<path d="M7.99385 2.5H16.3938C19.5938 2.5 22.1938 5.1 22.1938 8.3V16.7C22.1938 18.2383 21.5828 19.7135 20.4951 20.8012C19.4074 21.8889 17.9321 22.5 16.3938 22.5H7.99385C4.79385 22.5 2.19385 19.9 2.19385 16.7V8.3C2.19385 6.76174 2.80492 5.28649 3.89263 4.19878C4.98034 3.11107 6.45559 2.5 7.99385 2.5ZM7.79385 4.5C6.83907 4.5 5.92339 4.87928 5.24826 5.55442C4.57313 6.22955 4.19385 7.14522 4.19385 8.1V16.9C4.19385 18.89 5.80385 20.5 7.79385 20.5H16.5938C17.5486 20.5 18.4643 20.1207 19.1394 19.4456C19.8146 18.7705 20.1938 17.8548 20.1938 16.9V8.1C20.1938 6.11 18.5838 4.5 16.5938 4.5H7.79385ZM17.4438 6C17.7754 6 18.0933 6.1317 18.3277 6.36612C18.5622 6.60054 18.6938 6.91848 18.6938 7.25C18.6938 7.58152 18.5622 7.89946 18.3277 8.13388C18.0933 8.3683 17.7754 8.5 17.4438 8.5C17.1123 8.5 16.7944 8.3683 16.56 8.13388C16.3255 7.89946 16.1938 7.58152 16.1938 7.25C16.1938 6.91848 16.3255 6.60054 16.56 6.36612C16.7944 6.1317 17.1123 6 17.4438 6ZM12.1938 7.5C13.5199 7.5 14.7917 8.02678 15.7294 8.96447C16.6671 9.90215 17.1938 11.1739 17.1938 12.5C17.1938 13.8261 16.6671 15.0979 15.7294 16.0355C14.7917 16.9732 13.5199 17.5 12.1938 17.5C10.8678 17.5 9.596 16.9732 8.65831 16.0355C7.72063 15.0979 7.19385 13.8261 7.19385 12.5C7.19385 11.1739 7.72063 9.90215 8.65831 8.96447C9.596 8.02678 10.8678 7.5 12.1938 7.5ZM12.1938 9.5C11.3982 9.5 10.6351 9.81607 10.0725 10.3787C9.50992 10.9413 9.19385 11.7044 9.19385 12.5C9.19385 13.2956 9.50992 14.0587 10.0725 14.6213C10.6351 15.1839 11.3982 15.5 12.1938 15.5C12.9895 15.5 13.7526 15.1839 14.3152 14.6213C14.8778 14.0587 15.1938 13.2956 15.1938 12.5C15.1938 11.7044 14.8778 10.9413 14.3152 10.3787C13.7526 9.81607 12.9895 9.5 12.1938 9.5Z" fill="white"/>
</svg>
