<svg width="51" height="52" viewBox="0 0 51 52" fill="none" xmlns="http://www.w3.org/2000/svg">
<path d="M42.5002 17.498H30.5747L32.9611 10.3432C33.3903 9.05117 33.1736 7.61892 32.3767 6.51392C31.5798 5.40892 30.2878 4.74805 28.9257 4.74805H25.5002C24.8691 4.74805 24.2719 5.02855 23.8661 5.51305L13.8786 17.498H8.50018C6.15631 17.498 4.25018 19.4042 4.25018 21.748V40.873C4.25018 43.2169 6.15631 45.123 8.50018 45.123H36.7776C37.6422 45.1202 38.4856 44.855 39.1963 44.3625C39.907 43.87 40.4514 43.1734 40.7577 42.3648L46.6163 26.7439C46.7053 26.5053 46.7506 26.2527 46.7502 25.998V21.748C46.7502 19.4042 44.8441 17.498 42.5002 17.498ZM8.50018 21.748H12.7502V40.873H8.50018V21.748ZM42.5002 25.6134L36.7776 40.873H17.0002V20.3923L26.4947 8.99805H28.9299L25.6107 18.9494C25.5029 19.2688 25.4729 19.6093 25.523 19.9427C25.5732 20.2761 25.702 20.5927 25.899 20.8663C26.0959 21.1399 26.3552 21.3626 26.6554 21.5159C26.9556 21.6693 27.2881 21.7488 27.6252 21.748H42.5002V25.6134Z" fill="white"/>
</svg>
