<svg width="11" height="11" viewBox="0 0 11 11" fill="none" xmlns="http://www.w3.org/2000/svg">
<path d="M8.81365 6.99447L7.64948 6.86155C7.51259 6.84547 7.37384 6.86063 7.24365 6.90588C7.11346 6.95113 6.99522 7.02529 6.89781 7.1228L6.05448 7.96613C4.75336 7.3044 3.6958 6.24684 3.03406 4.94572L3.88198 4.0978C4.07906 3.90072 4.17531 3.62572 4.14323 3.34613L4.01031 2.19113C3.98433 1.96755 3.87703 1.76132 3.70884 1.61173C3.54065 1.46214 3.32332 1.37962 3.09823 1.37988H2.30531C1.7874 1.37988 1.35656 1.81072 1.38865 2.32863C1.63156 6.2428 4.76198 9.36863 8.67156 9.61155C9.18948 9.64363 9.62031 9.2128 9.62031 8.69488V7.90197C9.6249 7.43905 9.27656 7.04947 8.81365 6.99447Z" fill="white"/>
</svg>
