<svg width="95" height="40" viewBox="0 0 95 40" fill="none" xmlns="http://www.w3.org/2000/svg">
<g clip-path="url(#clip0_707_523)">
<rect width="95" height="39" transform="translate(0 0.5)" fill="#1B2C46"/>
<path d="M21.9027 13.3141C23.0319 13.3066 24.1519 13.5183 25.2013 13.9376V12.0804C24.0813 11.7061 22.906 11.5267 21.7259 11.5498C17.4755 11.5498 15.3503 13.376 15.3503 17.0284C15.3503 20.8877 17.4395 22.8183 21.6177 22.82C22.8403 22.8496 24.0571 22.6415 25.2013 22.2072V19.2888H23.0084V20.8382C22.5649 20.9526 22.1098 21.0149 21.652 21.0239C18.9674 21.0239 17.6259 19.6894 17.6277 17.0204C17.6277 14.5531 19.0527 13.3177 21.9027 13.3141Z" fill="white"/>
<path d="M35.6565 11.6055H33.2973L28.2703 22.7191H30.5239L34.4215 13.7279L36.2846 17.9012H33.9096L33.1548 19.6893H37.0868L38.4379 22.7191H40.7971L35.6565 11.6055Z" fill="white"/>
<path d="M46.4654 20.9283V11.6055H44.2725V22.7191H51.1679V20.9283H46.4654Z" fill="white"/>
<path d="M61.6206 11.6055H59.2614L54.2476 22.7191H56.4985L60.3988 13.7279L62.2619 17.9012H59.8869L59.111 19.6893H63.043L64.3888 22.7191H66.7638L61.6206 11.6055Z" fill="white"/>
<path d="M76.3641 13.3142C77.4977 13.3049 78.6224 13.5167 79.6759 13.9376V12.0805C78.555 11.706 77.3788 11.5265 76.1979 11.5499C71.9493 11.5499 69.825 13.3761 69.825 17.0284C69.825 20.8878 71.9493 22.8183 76.1979 22.8201C77.3808 22.8323 78.5571 22.6412 79.6759 22.255V20.3978C78.6224 20.8188 77.4977 21.0305 76.3641 21.0213C73.5229 21.0213 72.1014 19.6868 72.0997 17.0178C72.0997 14.5522 73.5212 13.3177 76.3641 13.3142Z" fill="white"/>
<path d="M16.6249 28.2299C17.647 28.2299 18.1581 27.694 18.1581 26.6222C18.1581 25.6777 17.647 25.2054 16.6249 25.2054H15.5957V28.2299H16.6249ZM15.3345 28.4475V24.9985H16.6539C17.8573 24.9985 18.4589 25.5433 18.4589 26.6328C18.4589 27.8479 17.8493 28.4563 16.6302 28.4581L15.3345 28.4475ZM30.7271 24.9985V25.2161H28.5764V26.593H30.64V26.8132H28.5764V28.2405H30.7641V28.4581H28.3073V25.0091L30.7271 24.9985ZM40.681 28.3361V28.0707C41.0938 28.2031 41.525 28.2685 41.9582 28.2644C42.7314 28.2644 43.1167 27.9991 43.1167 27.442C43.1167 27.0387 42.866 26.8371 42.3646 26.8371H41.6046C40.922 26.8371 40.5798 26.5461 40.5781 25.9642C40.5781 25.3045 41.0804 24.9746 42.0849 24.9746C42.4885 24.9736 42.8908 25.0217 43.2829 25.1179V25.3593C42.8934 25.2474 42.4901 25.1911 42.0849 25.1922C41.2616 25.1922 40.8472 25.4575 40.8472 25.9642C40.8472 26.3834 41.1111 26.593 41.6046 26.593H42.3646C43.0454 26.593 43.3859 26.876 43.3859 27.442C43.3859 28.1353 42.91 28.482 41.9582 28.482C41.5242 28.4826 41.0918 28.43 40.6704 28.3254L40.681 28.3361ZM53.6643 24.9985V28.4475H53.4004V24.9985H53.6643ZM66.6398 28.3228C66.3216 28.4295 65.9882 28.4833 65.6528 28.482C64.3334 28.482 63.6745 27.8806 63.6763 26.6779C63.6763 25.5424 64.3202 24.9746 65.6079 24.9746C65.9568 24.974 66.3041 25.0222 66.6398 25.1179V25.3354C66.3216 25.2424 65.9921 25.1942 65.6607 25.1922C64.5172 25.1922 63.9454 25.6874 63.9454 26.6779C63.9454 27.7391 64.5005 28.2697 65.6106 28.2697C65.8664 28.265 66.1206 28.2294 66.3679 28.1636V26.8901H66.6318L66.6398 28.3228ZM76.6121 28.4581V25.0091H76.9578L79.4199 28.0363V24.9879H79.6653V28.4369H79.4304L76.8391 25.2532V28.4369L76.6121 28.4581Z" fill="white"/>
<path d="M95 39.5H0V0.5H95V39.5ZM1.58333 37.9082H93.4167V2.09184H1.58333V37.9082Z" fill="white"/>
</g>
<defs>
<clipPath id="clip0_707_523">
<rect width="95" height="39" fill="white" transform="translate(0 0.5)"/>
</clipPath>
</defs>
</svg>
