<svg width="11" height="11" viewBox="0 0 11 11" fill="none" xmlns="http://www.w3.org/2000/svg">
<path d="M1.83342 9.16634C1.58133 9.16634 1.36546 9.07651 1.18579 8.89684C1.00612 8.71718 0.916443 8.50145 0.916749 8.24968V2.74968C0.916749 2.49759 1.00658 2.28172 1.18625 2.10205C1.36592 1.92238 1.58164 1.8327 1.83342 1.83301H9.16675C9.41883 1.83301 9.63471 1.92284 9.81437 2.10251C9.99404 2.28218 10.0837 2.4979 10.0834 2.74968V8.24968C10.0834 8.50176 9.99358 8.71763 9.81392 8.8973C9.63425 9.07697 9.41853 9.16665 9.16675 9.16634H1.83342ZM5.50008 5.95801L9.16675 3.66634V2.74968L5.50008 5.04134L1.83342 2.74968V3.66634L5.50008 5.95801Z" fill="white"/>
</svg>
