<svg width="30" height="29" viewBox="0 0 30 29" fill="none" xmlns="http://www.w3.org/2000/svg">
<path d="M7.57991 6.97385C6.56023 7.99679 5.7562 9.21396 5.21545 10.5533C4.67469 11.8926 4.40822 13.3268 4.43181 14.771C4.4554 16.2151 4.76856 17.6399 5.35276 18.9608C5.93697 20.2817 6.78032 21.472 7.83287 22.4611C8.88542 23.4502 10.1258 24.218 11.4804 24.719C12.8351 25.22 14.2765 25.4441 15.7194 25.378C17.1622 25.3118 18.5771 24.9568 19.8802 24.3339C21.1834 23.711 22.3483 22.833 23.3059 21.7517C21.2019 22.2692 19 22.235 16.913 21.6526C14.826 21.0702 12.9246 19.9592 11.3926 18.427C9.86058 16.8948 8.74979 14.9933 8.16761 12.9062C7.58544 10.8192 7.55156 8.61724 8.06927 6.51328C7.90149 6.66178 7.7383 6.81537 7.57991 6.97385ZM12.6696 17.1514C14.6117 19.0936 17.2211 20.2224 19.9664 20.308C22.7117 20.3936 25.3864 19.4294 27.4457 17.612C26.9121 19.7798 25.8119 21.7669 24.2577 23.3696C22.7035 24.9723 20.7512 26.1331 18.6008 26.733C16.4503 27.3329 14.1791 27.3503 12.0197 26.7836C9.86025 26.2168 7.89032 25.0862 6.31167 23.5075C4.73302 21.9289 3.6024 19.9589 3.03563 17.7995C2.46886 15.6401 2.48631 13.3689 3.0862 11.2184C3.68609 9.068 4.84685 7.11568 6.44957 5.56147C8.05229 4.00727 10.0394 2.90706 12.2072 2.37354C10.3895 4.43316 9.42532 7.10834 9.51123 9.85405C9.59714 12.5998 10.7266 15.2094 12.6696 17.1514Z" fill="white"/>
</svg>
