<svg width="40" height="40" viewBox="0 0 40 40" fill="none" xmlns="http://www.w3.org/2000/svg">
<path d="M17.3533 6.92967C15.1704 7.37258 13.1334 8.35524 11.428 9.78794C9.72265 11.2206 8.40338 13.0577 7.59064 15.1314C6.77791 17.2052 6.49761 19.4494 6.77534 21.6593C7.05308 23.8693 7.87999 25.9744 9.18058 27.7825C10.4812 29.5906 12.214 31.0441 14.2208 32.0103C16.2277 32.9765 18.4446 33.4245 20.6691 33.3135C22.8936 33.2025 25.0549 32.536 26.9556 31.3749C28.8563 30.2137 30.4358 28.595 31.5499 26.6663C27.5919 26.6356 23.8065 25.0416 21.0187 22.2319C18.2308 19.4222 16.6665 15.6245 16.6666 11.6663C16.6666 10.033 16.8849 8.43801 17.3533 6.92967ZM3.33325 19.9997C3.33325 10.7947 10.7949 3.33301 19.9999 3.33301H22.8899L21.4433 5.83301C20.4783 7.49967 19.9999 9.48134 19.9999 11.6663C19.9997 13.389 20.3809 15.0904 21.1163 16.6483C21.8517 18.2061 22.9229 19.5818 24.2531 20.6764C25.5833 21.7711 27.1394 22.5576 28.8096 22.9795C30.4799 23.4013 32.2228 23.4481 33.9133 23.1163L36.7166 22.5713L35.8116 25.2813C33.6033 31.8947 27.3616 36.6663 19.9999 36.6663C10.7949 36.6663 3.33325 29.2047 3.33325 19.9997Z" fill="white"/>
</svg>
