<svg width="27" height="27" viewBox="0 0 27 27" fill="none" xmlns="http://www.w3.org/2000/svg">
<path d="M22.5002 20.249H20.2502V10.4053L13.5002 14.624L6.75024 10.4053V20.249H4.50024V6.74902H5.85024L13.5002 11.5303L21.1502 6.74902H22.5002M22.5002 4.49902H4.50024C3.25149 4.49902 2.25024 5.50027 2.25024 6.74902V20.249C2.25024 20.8458 2.4873 21.4181 2.90925 21.84C3.33121 22.262 3.90351 22.499 4.50024 22.499H22.5002C23.097 22.499 23.6693 22.262 24.0912 21.84C24.5132 21.4181 24.7502 20.8458 24.7502 20.249V6.74902C24.7502 6.15229 24.5132 5.57999 24.0912 5.15803C23.6693 4.73608 23.097 4.49902 22.5002 4.49902Z" fill="white"/>
</svg>
