<svg width="26" height="26" viewBox="0 0 26 26" fill="none" xmlns="http://www.w3.org/2000/svg">
<g clip-path="url(#clip0_1228_2)">
<path d="M12.7059 0.352539C9.25782 0.352539 8.82424 0.368421 7.46947 0.428774C6.11471 0.492304 5.19194 0.705127 4.38353 1.0196C3.53516 1.33776 2.76693 1.83817 2.133 2.48554C1.48563 3.11947 0.985223 3.8877 0.667059 4.73607C0.352588 5.54289 0.138176 6.46724 0.0762353 7.81724C0.0158824 9.17519 0 9.60719 0 13.06C0 16.5097 0.0158824 16.9417 0.0762353 18.2964C0.139765 19.6496 0.352588 20.5724 0.667059 21.3808C0.992647 22.2162 1.42624 22.9245 2.133 23.6313C2.83818 24.3381 3.54653 24.7732 4.38194 25.0972C5.19194 25.4117 6.11312 25.6261 7.46629 25.6881C8.82265 25.7484 9.25465 25.7643 12.7059 25.7643C16.1571 25.7643 16.5875 25.7484 17.9439 25.6881C19.2955 25.6245 20.2214 25.4117 21.0298 25.0972C21.8776 24.7789 22.6453 24.2785 23.2788 23.6313C23.9855 22.9245 24.4191 22.2162 24.7447 21.3808C25.0576 20.5724 25.272 19.6496 25.3355 18.2964C25.3959 16.9417 25.4118 16.5097 25.4118 13.0584C25.4118 9.60719 25.3959 9.17519 25.3355 7.81883C25.272 6.46725 25.0576 5.54289 24.7447 4.73607C24.4265 3.8877 23.9261 3.11947 23.2788 2.48554C22.6448 1.83817 21.8766 1.33776 21.0282 1.0196C20.2182 0.705127 19.2939 0.490716 17.9423 0.428774C16.5859 0.368421 16.1555 0.352539 12.7027 0.352539H12.7059ZM11.5671 2.64277H12.7075C16.0999 2.64277 16.5018 2.65389 17.8406 2.71583C19.0795 2.77142 19.7529 2.97948 20.2008 3.1526C20.7932 3.38289 21.2172 3.65924 21.6619 4.10395C22.1066 4.54866 22.3814 4.97113 22.6117 5.56513C22.7864 6.01142 22.9929 6.68483 23.0485 7.92366C23.1104 9.26254 23.1231 9.66436 23.1231 13.0552C23.1231 16.4461 23.1104 16.8495 23.0485 18.1884C22.9929 19.4272 22.7848 20.0991 22.6117 20.547C22.4066 21.0979 22.0816 21.5964 21.6604 22.0065C21.2156 22.4512 20.7932 22.726 20.1992 22.9563C19.7545 23.131 19.0811 23.3375 17.8406 23.3947C16.5018 23.455 16.0999 23.4693 12.7075 23.4693C9.315 23.4693 8.91159 23.455 7.57271 23.3947C6.33388 23.3375 5.66206 23.131 5.21418 22.9563C4.66279 22.7518 4.16371 22.4274 3.753 22.0065C3.33096 21.5961 3.00546 21.097 2.80006 20.5454C2.62694 20.0991 2.41888 19.4257 2.36329 18.1868C2.30294 16.848 2.29024 16.4461 2.29024 13.0521C2.29024 9.65801 2.30294 9.25936 2.36329 7.92048C2.42047 6.68166 2.62694 6.00824 2.80165 5.56036C3.03194 4.96795 3.30829 4.54389 3.753 4.09919C4.19771 3.65448 4.62018 3.37972 5.21418 3.14942C5.66206 2.97472 6.33388 2.76824 7.57271 2.71107C8.74482 2.65707 9.19906 2.64119 11.5671 2.6396V2.64277ZM19.4892 4.75195C19.289 4.75195 19.0907 4.79139 18.9058 4.86801C18.7208 4.94464 18.5527 5.05694 18.4111 5.19853C18.2695 5.34011 18.1572 5.50819 18.0806 5.69318C18.004 5.87816 17.9645 6.07643 17.9645 6.27666C17.9645 6.47688 18.004 6.67515 18.0806 6.86014C18.1572 7.04512 18.2695 7.2132 18.4111 7.35479C18.5527 7.49637 18.7208 7.60868 18.9058 7.6853C19.0907 7.76192 19.289 7.80136 19.4892 7.80136C19.8936 7.80136 20.2814 7.64072 20.5674 7.35479C20.8533 7.06885 21.0139 6.68103 21.0139 6.27666C21.0139 5.87228 20.8533 5.48446 20.5674 5.19853C20.2814 4.91259 19.8936 4.75195 19.4892 4.75195ZM12.7075 6.53395C11.842 6.52045 10.9825 6.67925 10.179 7.00112C9.37545 7.32298 8.64399 7.80148 8.02718 8.40874C7.41037 9.01601 6.92052 9.73991 6.58616 10.5383C6.2518 11.3367 6.07961 12.1936 6.07961 13.0592C6.07961 13.9248 6.2518 14.7817 6.58616 15.5801C6.92052 16.3785 7.41037 17.1024 8.02718 17.7097C8.64399 18.317 9.37545 18.7954 10.179 19.1173C10.9825 19.4392 11.842 19.598 12.7075 19.5845C14.4204 19.5578 16.0542 18.8585 17.2561 17.6377C18.4581 16.4169 19.1317 14.7724 19.1317 13.0592C19.1317 11.346 18.4581 9.70155 17.2561 8.48073C16.0542 7.25991 14.4204 6.56068 12.7075 6.53395ZM12.7075 8.8226C13.2637 8.8226 13.8145 8.93216 14.3285 9.14503C14.8424 9.3579 15.3093 9.66991 15.7027 10.0632C16.096 10.4566 16.408 10.9235 16.6209 11.4374C16.8337 11.9514 16.9433 12.5022 16.9433 13.0584C16.9433 13.6147 16.8337 14.1655 16.6209 14.6794C16.408 15.1933 16.096 15.6603 15.7027 16.0536C15.3093 16.4469 14.8424 16.7589 14.3285 16.9718C13.8145 17.1847 13.2637 17.2942 12.7075 17.2942C11.5841 17.2942 10.5067 16.848 9.71229 16.0536C8.91792 15.2592 8.47165 14.1818 8.47165 13.0584C8.47165 11.935 8.91792 10.8576 9.71229 10.0632C10.5067 9.26887 11.5841 8.8226 12.7075 8.8226Z" fill="white"/>
</g>
<defs>
<clipPath id="clip0_1228_2">
<rect width="25.4118" height="25.4118" fill="white" transform="translate(0 0.352539)"/>
</clipPath>
</defs>
</svg>
