<svg width="26" height="26" viewBox="0 0 26 26" fill="none" xmlns="http://www.w3.org/2000/svg">
<path d="M21.1236 22.7063C18.9177 22.7063 16.7383 22.2256 14.5853 21.2642C12.4324 20.3028 10.4736 18.9393 8.70887 17.1739C6.94416 15.4085 5.5811 13.4497 4.61969 11.2975C3.65828 9.14523 3.17722 6.96581 3.17651 4.75923C3.17651 4.44158 3.2824 4.17687 3.49416 3.96511C3.70593 3.75334 3.97063 3.64746 4.28828 3.64746H8.57651C8.82357 3.64746 9.04416 3.73146 9.23828 3.89946C9.4324 4.06746 9.5471 4.26581 9.5824 4.49452L10.2706 8.2004C10.3059 8.48275 10.2971 8.72099 10.2442 8.91511C10.1912 9.10923 10.0942 9.27687 9.95298 9.41805L7.38534 12.0122C7.73828 12.6651 8.15722 13.2958 8.64216 13.9043C9.1271 14.5128 9.6611 15.0997 10.2442 15.6651C10.7912 16.2122 11.3647 16.7197 11.9647 17.1877C12.5647 17.6557 13.2 18.0835 13.8706 18.471L16.3589 15.9828C16.5177 15.8239 16.7252 15.705 16.9815 15.6259C17.2377 15.5469 17.489 15.5246 17.7353 15.5592L21.3883 16.3004C21.6353 16.371 21.8383 16.4991 21.9971 16.6848C22.1559 16.8704 22.2353 17.0776 22.2353 17.3063V21.5945C22.2353 21.9122 22.1295 22.1769 21.9177 22.3886C21.7059 22.6004 21.4412 22.7063 21.1236 22.7063Z" fill="white"/>
</svg>
