<svg width="26" height="26" viewBox="0 0 26 26" fill="none" xmlns="http://www.w3.org/2000/svg">
<path d="M21.6667 8.53223H4.33341V6.44889H21.6667V8.53223ZM19.5001 2.28223H6.50008V4.36556H19.5001V2.28223ZM23.8334 12.6989V21.0322C23.8334 21.5848 23.6051 22.1147 23.1988 22.5054C22.7925 22.8961 22.2414 23.1156 21.6667 23.1156H4.33341C3.75931 23.1139 3.2092 22.8939 2.80324 22.5035C2.39729 22.1132 2.16846 21.5843 2.16675 21.0322V12.6989C2.16846 12.1469 2.39729 11.6179 2.80324 11.2276C3.2092 10.8372 3.75931 10.6172 4.33341 10.6156H21.6667C22.2409 10.6172 22.791 10.8372 23.1969 11.2276C23.6029 11.6179 23.8317 12.1469 23.8334 12.6989ZM15.0877 17.951L17.6042 15.8822L14.2903 15.6156L13.0001 12.6989L11.7098 15.6156L8.39591 15.8822L10.9125 17.951L10.1542 21.0322L13.0001 19.3947L15.846 21.0322L15.0877 17.951Z" fill="white"/>
</svg>
