<svg width="31" height="31" viewBox="0 0 31 31" fill="none" xmlns="http://www.w3.org/2000/svg">
<path d="M9.40851 13.347C9.17052 14.0204 9.04102 14.745 9.04102 15.4998C9.04102 19.0666 11.9325 21.9582 15.4993 21.9582C19.0662 21.9582 21.9577 19.0666 21.9577 15.4998C21.9577 11.933 19.0662 9.0415 15.4993 9.0415C14.7445 9.0415 14.0199 9.17101 13.3465 9.409" stroke="white" stroke-width="1.9375" stroke-linecap="round"/>
<path d="M15.5 2.5835V5.16683" stroke="white" stroke-width="1.9375" stroke-linecap="round"/>
<path d="M15.5 25.8335V28.4168" stroke="white" stroke-width="1.9375" stroke-linecap="round"/>
<path d="M5.16732 15.5H2.58398" stroke="white" stroke-width="1.9375" stroke-linecap="round"/>
<path d="M28.4173 15.5H25.834" stroke="white" stroke-width="1.9375" stroke-linecap="round"/>
<path d="M25.5459 5.4541L22.6758 8.07823" stroke="white" stroke-width="1.9375" stroke-linecap="round"/>
<path d="M5.45312 5.4541L8.32322 8.07823" stroke="white" stroke-width="1.9375" stroke-linecap="round"/>
<path d="M8.32351 22.6758L5.45312 25.5461" stroke="white" stroke-width="1.9375" stroke-linecap="round"/>
<path d="M25.5459 25.5456L22.6758 22.6753" stroke="white" stroke-width="1.9375" stroke-linecap="round"/>
</svg>
