<svg width="60" height="60" viewBox="0 0 60 60" fill="none" xmlns="http://www.w3.org/2000/svg">
<g clip-path="url(#clip0_782_240)">
<path d="M0 30C0 22.0435 3.16071 14.4129 8.7868 8.7868C14.4129 3.16071 22.0435 0 30 0C37.9565 0 45.5871 3.16071 51.2132 8.7868C56.8393 14.4129 60 22.0435 60 30C60 37.9565 56.8393 45.5871 51.2132 51.2132C45.5871 56.8393 37.9565 60 30 60C22.0435 60 14.4129 56.8393 8.7868 51.2132C3.16071 45.5871 0 37.9565 0 30ZM30 5.625C23.5353 5.625 17.3355 8.19307 12.7643 12.7643C8.19307 17.3355 5.625 23.5353 5.625 30C5.625 36.4647 8.19307 42.6645 12.7643 47.2357C17.3355 51.8069 23.5353 54.375 30 54.375C36.4647 54.375 42.6645 51.8069 47.2357 47.2357C51.8069 42.6645 54.375 36.4647 54.375 30C54.375 23.5353 51.8069 17.3355 47.2357 12.7643C42.6645 8.19307 36.4647 5.625 30 5.625ZM24.375 29.0625C24.375 28.3166 24.6713 27.6012 25.1988 27.0738C25.7262 26.5463 26.4416 26.25 27.1875 26.25H30.9375C31.6834 26.25 32.3988 26.5463 32.9262 27.0738C33.4537 27.6012 33.75 28.3166 33.75 29.0625V39.375H34.6875C35.4334 39.375 36.1488 39.6713 36.6762 40.1988C37.2037 40.7262 37.5 41.4416 37.5 42.1875C37.5 42.9334 37.2037 43.6488 36.6762 44.1762C36.1488 44.7037 35.4334 45 34.6875 45H27.1875C26.4416 45 25.7262 44.7037 25.1988 44.1762C24.6713 43.6488 24.375 42.9334 24.375 42.1875C24.375 41.4416 24.6713 40.7262 25.1988 40.1988C25.7262 39.6713 26.4416 39.375 27.1875 39.375H28.125V31.875H27.1875C26.4416 31.875 25.7262 31.5787 25.1988 31.0512C24.6713 30.5238 24.375 29.8084 24.375 29.0625ZM30 22.5C29.0054 22.5 28.0516 22.1049 27.3484 21.4016C26.6451 20.6984 26.25 19.7446 26.25 18.75C26.25 17.7554 26.6451 16.8016 27.3484 16.0984C28.0516 15.3951 29.0054 15 30 15C30.9946 15 31.9484 15.3951 32.6516 16.0984C33.3549 16.8016 33.75 17.7554 33.75 18.75C33.75 19.7446 33.3549 20.6984 32.6516 21.4016C31.9484 22.1049 30.9946 22.5 30 22.5Z" fill="white"/>
</g>
<defs>
<clipPath id="clip0_782_240">
<rect width="60" height="60" fill="white"/>
</clipPath>
</defs>
</svg>
