<svg width="44" height="44" viewBox="0 0 44 44" fill="none" xmlns="http://www.w3.org/2000/svg">
<g clip-path="url(#clip0_716_2543)">
<path d="M22 0C24.0195 0 25.9674 0.257812 27.8438 0.773438C29.7201 1.28906 31.4746 2.02669 33.1074 2.98633C34.7402 3.94596 36.2227 5.0918 37.5547 6.42383C38.8867 7.75586 40.0326 9.24544 40.9922 10.8926C41.9518 12.5397 42.6895 14.2943 43.2051 16.1562C43.7207 18.0182 43.9857 19.9661 44 22C44 24.0195 43.7422 25.9674 43.2266 27.8438C42.7109 29.7201 41.9733 31.4746 41.0137 33.1074C40.054 34.7402 38.9082 36.2227 37.5762 37.5547C36.2441 38.8867 34.7546 40.0326 33.1074 40.9922C31.4603 41.9518 29.7057 42.6895 27.8438 43.2051C25.9818 43.7207 24.0339 43.9857 22 44C19.9805 44 18.0326 43.7422 16.1562 43.2266C14.2799 42.7109 12.5254 41.9733 10.8926 41.0137C9.25977 40.054 7.77734 38.9082 6.44531 37.5762C5.11328 36.2441 3.96745 34.7546 3.00781 33.1074C2.04818 31.4603 1.31055 29.7129 0.794922 27.8652C0.279297 26.0176 0.0143229 24.0625 0 22C0 19.9805 0.257812 18.0326 0.773438 16.1562C1.28906 14.2799 2.02669 12.5254 2.98633 10.8926C3.94596 9.25977 5.0918 7.77734 6.42383 6.44531C7.75586 5.11328 9.24544 3.96745 10.8926 3.00781C12.5397 2.04818 14.2871 1.31055 16.1348 0.794922C17.9824 0.279297 19.9375 0.0143229 22 0ZM22 41.25C23.7617 41.25 25.459 41.0208 27.0918 40.5625C28.7246 40.1042 30.2572 39.4596 31.6895 38.6289C33.1217 37.7982 34.4251 36.7884 35.5996 35.5996C36.7741 34.4108 37.7767 33.1146 38.6074 31.7109C39.4382 30.3073 40.0898 28.7747 40.5625 27.1133C41.0352 25.4518 41.2643 23.7474 41.25 22C41.25 20.2383 41.0208 18.541 40.5625 16.9082C40.1042 15.2754 39.4596 13.7428 38.6289 12.3105C37.7982 10.8783 36.7884 9.57487 35.5996 8.40039C34.4108 7.22591 33.1146 6.22331 31.7109 5.39258C30.3073 4.56185 28.7747 3.91016 27.1133 3.4375C25.4518 2.96484 23.7474 2.73568 22 2.75C20.2383 2.75 18.541 2.97917 16.9082 3.4375C15.2754 3.89583 13.7428 4.54036 12.3105 5.37109C10.8783 6.20182 9.57487 7.21159 8.40039 8.40039C7.22591 9.58919 6.22331 10.8854 5.39258 12.2891C4.56185 13.6927 3.91016 15.2253 3.4375 16.8867C2.96484 18.5482 2.73568 20.2526 2.75 22C2.75 23.7617 2.97917 25.459 3.4375 27.0918C3.89583 28.7246 4.54036 30.2572 5.37109 31.6895C6.20182 33.1217 7.21159 34.4251 8.40039 35.5996C9.58919 36.7741 10.8854 37.7767 12.2891 38.6074C13.6927 39.4382 15.2253 40.0898 16.8867 40.5625C18.5482 41.0352 20.2526 41.2643 22 41.25ZM34.8262 22.3438L35.8574 19.25H37.4688L35.6426 24.75H34.0312L33 21.6562L31.9688 24.75H30.3574L28.5312 19.25H30.1426L31.1738 22.3438L32.2051 19.25H33.7949L34.8262 22.3438ZM24.8574 19.25H26.4688L24.6426 24.75H23.0312L22 21.6562L20.9688 24.75H19.3574L17.5312 19.25H19.1426L20.1738 22.3438L21.2051 19.25H22.7949L23.8262 22.3438L24.8574 19.25ZM13.8574 19.25H15.4688L13.6426 24.75H12.0312L11 21.6562L9.96875 24.75H8.35742L6.53125 19.25H8.14258L9.17383 22.3438L10.2051 19.25H11.7949L12.8262 22.3438L13.8574 19.25Z" fill="white"/>
</g>
<defs>
<clipPath id="clip0_716_2543">
<rect width="44" height="44" fill="white"/>
</clipPath>
</defs>
</svg>
