<svg width="25" height="25" viewBox="0 0 25 25" fill="none" xmlns="http://www.w3.org/2000/svg">
<path d="M19.2438 5.41006C18.327 4.48399 17.235 3.74973 16.0315 3.25011C14.8279 2.75049 13.537 2.49552 12.2338 2.50006C6.77384 2.50006 2.32384 6.95006 2.32384 12.4101C2.32384 14.1601 2.78384 15.8601 3.64384 17.3601L2.24384 22.5001L7.49384 21.1201C8.94384 21.9101 10.5738 22.3301 12.2338 22.3301C17.6938 22.3301 22.1438 17.8801 22.1438 12.4201C22.1438 9.77006 21.1138 7.28006 19.2438 5.41006ZM12.2338 20.6501C10.7538 20.6501 9.30384 20.2501 8.03384 19.5001L7.73384 19.3201L4.61384 20.1401L5.44384 17.1001L5.24384 16.7901C4.42158 15.477 3.98498 13.9593 3.98384 12.4101C3.98384 7.87006 7.68384 4.17006 12.2238 4.17006C14.4238 4.17006 16.4938 5.03006 18.0438 6.59006C18.8113 7.35402 19.4195 8.26272 19.8332 9.26348C20.2469 10.2642 20.4579 11.3372 20.4538 12.4201C20.4738 16.9601 16.7738 20.6501 12.2338 20.6501ZM16.7538 14.4901C16.5038 14.3701 15.2838 13.7701 15.0638 13.6801C14.8338 13.6001 14.6738 13.5601 14.5038 13.8001C14.3338 14.0501 13.8638 14.6101 13.7238 14.7701C13.5838 14.9401 13.4338 14.9601 13.1838 14.8301C12.9338 14.7101 12.1338 14.4401 11.1938 13.6001C10.4538 12.9401 9.96384 12.1301 9.81384 11.8801C9.67384 11.6301 9.79383 11.5001 9.92383 11.3701C10.0338 11.2601 10.1738 11.0801 10.2938 10.9401C10.4138 10.8001 10.4638 10.6901 10.5438 10.5301C10.6238 10.3601 10.5838 10.2201 10.5238 10.1001C10.4638 9.98006 9.96383 8.76006 9.76383 8.26006C9.56384 7.78006 9.35384 7.84006 9.20384 7.83006H8.72383C8.55383 7.83006 8.29384 7.89006 8.06384 8.14006C7.84384 8.39006 7.20384 8.99006 7.20384 10.2101C7.20384 11.4301 8.09384 12.6101 8.21384 12.7701C8.33384 12.9401 9.96384 15.4401 12.4438 16.5101C13.0338 16.7701 13.4938 16.9201 13.8538 17.0301C14.4438 17.2201 14.9838 17.1901 15.4138 17.1301C15.8938 17.0601 16.8838 16.5301 17.0838 15.9501C17.2938 15.3701 17.2938 14.8801 17.2238 14.7701C17.1538 14.6601 17.0038 14.6101 16.7538 14.4901Z" fill="white"/>
</svg>
